<?xml version="1.0" standalone="no"?><!DOCTYPE svg PUBLIC "-//W3C//DTD SVG 1.1//EN" "http://www.w3.org/Graphics/SVG/1.1/DTD/svg11.dtd"><svg t="1626688998602" class="icon" viewBox="0 0 1024 1024" version="1.1" xmlns="http://www.w3.org/2000/svg" p-id="2602" width="32" height="32" xmlns:xlink="http://www.w3.org/1999/xlink"><defs><style type="text/css"></style></defs><path d="M653.0048 625.5616m-212.7872 0a212.7872 212.7872 0 1 0 425.5744 0 212.7872 212.7872 0 1 0-425.5744 0Z" fill="#FF8080" p-id="2603"></path><path d="M873.9328 699.136V474.5728c0-193.9456-157.7984-351.744-351.744-351.744s-351.744 157.7984-351.744 351.744v225.536c0 41.5232 33.792 75.264 75.264 75.264h31.3856c41.5232 0 75.264-33.792 75.264-75.264v-149.0432c0-41.5232-33.792-75.264-75.264-75.264h-31.3856c-8.448 0-16.4864 1.4336-24.064 4.0448V474.624c0-165.7344 134.8096-300.544 300.544-300.544s300.544 134.8096 300.544 300.544v5.2224c-7.5776-2.56-15.6672-4.0448-24.064-4.0448h-31.3856c-41.5232 0-75.264 33.792-75.264 75.264v149.0432c0 41.5232 33.792 75.264 75.264 75.264h10.5472c-40.7552 29.3888-118.8352 57.2928-268.288 57.2928H496.64c-14.1312 0-25.6 11.4688-25.6 25.6s11.4688 25.6 25.6 25.6h37.888c1.1776 0 2.304-0.2048 3.4304-0.3584 147.0464-3.5328 248.1152-35.1744 300.544-94.1568 36.3008-40.7552 36.096-80.3328 35.4304-90.2144zM245.6576 527.0016h31.3856c13.2608 0 24.064 10.8032 24.064 24.064v149.0432c0 13.2608-10.8032 24.064-24.064 24.064h-31.3856c-13.2608 0-24.064-10.8032-24.064-24.064v-149.0432c0-13.2608 10.8032-24.064 24.064-24.064z m577.0752 33.2288v139.8784c0 13.2608-10.8032 24.064-24.064 24.064h-31.3856c-13.2608 0-24.064-10.8032-24.064-24.064v-149.0432c0-13.2608 10.8032-24.064 24.064-24.064h31.3856c13.2608 0 24.064 10.8032 24.064 24.064v9.1648z" fill="#512C56" p-id="2604"></path></svg>